<?xml version="1.0" encoding="utf-8"?>
<!-- Generator: Adobe Illustrator 23.0.3, SVG Export Plug-In . SVG Version: 6.00 Build 0)  -->
<svg version="1.1" id="Layer_1" xmlns="http://www.w3.org/2000/svg" xmlns:xlink="http://www.w3.org/1999/xlink" x="0px" y="0px"
	 viewBox="0 0 4382.78 2828.67" style="enable-background:new 0 0 4382.78 2828.67;" xml:space="preserve">
<style type="text/css">
	.st0{fill:#ED1D34;}
	.st1{fill:#FFFFFF;}
	.st2{fill:#20252A;}
	.st3{fill:#21252A;}
	.st4{fill:#22262B;}
	.st5{fill:#21262A;}
	.st6{fill:#25292E;}
	.st7{fill:#2C2F33;}
	.st8{fill:#FEFEFE;}
	.st9{fill:#FDFCFC;}
	.st10{fill:#FEFDFD;}
</style>
<g>
	<g>
		<path class="st0" d="M4387.57,2835.23c-719.82,0-1439.64,0-2159.46,0c-8.61-8.58-10.53-19.54-10.95-31
			c-0.41-11.24-0.26-22.49-0.26-33.74c-0.01-899.72-0.01-1799.44,0-2699.15c0-67.56,0.02-67.56,66.54-67.56
			c690.72,0,1381.44-0.01,2072.16,0.04c37.73,0,34.73-4.49,34.73,34.47c0.03,922.21,0.04,1844.42-0.1,2766.63
			C4390.22,2815.02,4392.79,2825.52,4387.57,2835.23z"/>
		<path class="st1" d="M4387.57,2835.23c0-931.53-0.14-1863.07,0.68-2794.6c0.02-27.97-6.1-34.82-34.55-34.79
			c-698.18,0.92-1396.36,0.88-2094.55,0.11c-25.74-0.03-31.65,6.58-31.63,31.87c0.69,932.47,0.58,1864.94,0.58,2797.41
			c-733.71,0-1467.42-0.09-2201.14,0.47c-20.13,0.02-26.43-3.03-26.41-25.26C1.26,1881.82,1.25,953.2,0.56,24.59
			C0.55,3.62,5.71,0.45,25.3,0.45C1473.05,0.99,2920.8,1.01,4368.54,0.32c22.54-0.01,25.11,6.7,25.1,26.57
			c-0.52,927.68-0.43,1855.36-0.8,2783.04C4392.84,2818.17,4399.33,2829,4387.57,2835.23z"/>
		<path class="st2" d="M326.38,2307.17c-51.52,0-103.04,0.15-154.56-0.15c-8.21-0.05-20.05,4.51-19.67-11.57
			c1.15-47.72-5.07-95.98,3.23-143.07c14.04-79.67,69.76-120.77,164.51-126.09c94.47-5.31,160.96,40.98,179.53,125.17
			c1.4,6.34,2.1,12.95,2.17,19.45c0.43,39.34-0.07,78.7,1.17,118c0.48,15.12-4.67,18.77-19.02,18.56
			C431.3,2306.71,378.84,2307.17,326.38,2307.17z"/>
		<path class="st2" d="M1141.6,1032.43c22.19,18.79,38.8,39.22,42.46,69.08c5.97,48.67-14.55,89.12-60.28,108.28
			c-42.15,17.67-85.85,17.81-128.63,3.03c-35.67-12.33-60.29-36.53-67.15-75.55c-7.47-42.45,4.58-77.19,41.27-103.97
			c-6.31-7.73-15.2-3.88-22.16-3.68c-12.52,0.37-18.51-2.28-18.56-16.76c-0.05-13.59,3.74-17.45,17.34-17.33
			c80.52,0.7,161.04,0.36,241.56,0.71c22.45,0.1,41.58,9.14,57.63,24.67c47.29,45.75,40.8,145.54-12.08,179.27
			c-7.83,4.99-20.53,16.29-26.14,6.53c-5.59-9.71-9.36-26.76,6.71-37.02c17.4-11.12,27.44-27.64,30.3-48.16
			C1251.98,1063.42,1222.56,1018.74,1141.6,1032.43z"/>
		<path class="st3" d="M463.33,1823.01c40.4,35.55,52.82,75.02,37.8,121.56c-9.92,30.75-35.44,47.49-68.51,47.59
			c-32.47,0.09-54.59-14.84-65.9-46.28c-11.27-31.33-12.05-64.34-11.51-97.06c0.35-21.43-6.9-28.2-28.15-23.96
			c-26.77,5.33-44.11,19.2-49.31,46.34c-5.68,29.67,5.36,57.14,28.17,70.98c4.72,2.86,11.76,3.38,14.77,7.26
			c6.09,7.87,5.45,18.84,2.3,27c-4.2,10.87-14.72,4.12-22.06,2.54c-6.11-1.31-11.78-5.45-17.2-9.02
			c-33.99-22.41-48.7-76.77-33.85-124.45c11.2-35.98,40.57-55.87,84.33-56.18c48.73-0.35,97.46,0.09,146.18-0.2
			c12.7-0.07,22.82-1.76,22.82,17.7c-0.01,18.6-9.96,16.42-21.26,16.19C477.3,1822.93,472.64,1823.01,463.33,1823.01z"/>
		<path class="st3" d="M1108.21,1857.75c49.36,11.23,76.74,45.45,79.42,95.26c3.02,55.96-24.21,100.84-73.27,116.23
			c-38.26,12-77.75,12.17-115.87-0.86c-57.37-19.61-86.32-77.27-68.73-138.32c15.5-53.82,65.66-76.76,123.84-75.66
			c16.14,0.31,11.06,12.17,11.13,20.2c0.39,48.69,1.09,97.4-0.22,146.05c-0.55,20.53,6.63,24.09,24.69,19.46
			c32.13-8.24,56.7-24.52,64.53-58.54c8.4-36.5-1.93-65.23-33.67-84.37C1102.22,1886.46,1112.25,1873,1108.21,1857.75z"/>
		<path class="st3" d="M1055.94,589.86c95.96-0.34,151.51,66.5,126.45,152.04c-5.12,17.47-14.47,32.23-27.45,44.82
			c-47.26,45.82-148.9,46.61-196.19,0.69c-35.34-34.32-40.81-77.24-27.04-121.8c14.18-45.92,50.55-67.2,96.2-74.2
			C1037.11,589.99,1046.59,590.35,1055.94,589.86z"/>
		<path class="st4" d="M962.27,517.39c-27.23-24.17-36.44-53.22-37.1-84.95c-1.03-49.59,31.88-85.45,82.78-87.63
			c53.25-2.28,106.67-0.16,159.99-1.17c16.26-0.31,14.54,8.72,15.24,19.38c0.83,12.68-4.23,15.77-16.14,15.62
			c-44.91-0.57-89.85-1.05-134.75,0.01c-50.98,1.2-76.02,24.31-75.06,66.82c0.84,37.03,26.1,65.35,64.83,67.46
			c44.79,2.43,89.78,1.17,134.67,2.02c11.62,0.22,26.54-6.18,26.81,16.83c0.26,21.72-12.6,18.39-25.49,18.38
			c-68.31-0.03-136.63,0.09-204.94-0.12c-11.16-0.04-24.18,4.63-24.73-16.17c-0.55-21.03,12.22-16.13,23.52-16.46
			C955.36,517.3,958.82,517.39,962.27,517.39z"/>
		<path class="st4" d="M968.03,1434.04c-24.9-21.47-38.03-42.1-41.37-69.95c-6.91-57.73,25.06-100.43,82.96-102.77
			c52.32-2.12,104.8-0.07,157.18-1.06c14.91-0.28,16.03,6.17,16.52,18.27c0.58,14.31-5.29,16.92-17.97,16.75
			c-44.91-0.61-89.86-1.22-134.74,0.06c-48.35,1.38-72.71,23.28-73.39,62.83c-0.71,41.76,26.3,69.15,72.09,72.42
			c13.97,1,28.05,0.75,42.08,0.8c31.82,0.11,63.65,0.68,95.44-0.24c15.03-0.43,16.38,7.02,16.35,18.94
			c-0.03,11.38-2.6,16.97-15.58,16.89c-73.93-0.46-147.86-0.51-221.78,0.04c-14.05,0.1-16.93-5.46-17.21-18.21
			c-0.3-13.26,5.27-16.05,16.57-14.88C950.72,1434.51,956.37,1434.04,968.03,1434.04z"/>
		<path class="st4" d="M965.52,1780.79c-31.87-26.38-44.53-58.47-38.52-97.28c6.92-44.74,34.74-71.69,81.32-73.46
			c53.27-2.02,106.67-0.26,159.99-1.06c13.56-0.2,14.6,6.09,14.9,16.9c0.35,12.46-1.78,18.53-16.57,18.15
			c-40.21-1.03-80.47-0.54-120.71-0.23c-11.15,0.09-22.46,0.72-33.4,2.74c-39.52,7.29-56.3,27.26-55.31,64.58
			c0.92,34.7,24.86,64.21,59.64,66.42c47.55,3.01,95.36,1.99,143.06,2.45c12.33,0.12,23.62-2.24,23.62,17.45
			c0,18.97-10.05,18.15-23.06,18.1c-68.31-0.26-136.63,0.11-204.94-0.35c-11.28-0.08-26.77,6.89-27.08-16.44
			c-0.33-24.23,16.07-13.79,26.65-16.08C957.55,1782.17,960.02,1781.79,965.52,1780.79z"/>
		<path class="st5" d="M287.79,1703.89c-30.55-20.75-40.66-47.74-43-78.43c-3.61-47.36,24.5-84.21,72.55-90.71
			c56.81-7.68,114.18-1.39,171.26-3.34c14.67-0.5,13.18,8.59,14.06,18.23c1.28,14.04-4.88,16.97-17.8,17.14
			c-49.6,0.66-99.34-3.68-148.79,2.29c-39.37,4.75-57.76,23.45-59.27,57.93c-1.6,36.35,17.97,64.7,53.14,72.13
			c48.12,10.16,97.17,2.14,145.72,4.86c10.66,0.6,27.33-8.64,27.36,15.55c0.02,17.63-7.61,19.15-21.84,19.04
			c-70.29-0.54-140.58-0.43-210.87-0.08c-13.22,0.07-22.59,0.8-22.43-18.14c0.15-18.68,10.58-15.68,21.54-15.64
			C273.79,1704.75,278.18,1704.35,287.79,1703.89z"/>
		<path class="st3" d="M1005.5,2307.19c-50.57,0-101.15-0.38-151.71,0.24c-14.04,0.17-21.99-0.84-21.83-18.78
			c0.16-17.86,9.69-16.33,21.32-16.31c90.84,0.15,181.69-0.47,272.52,0.53c19.46,0.21,25.81-4.87,25.14-24.78
			c-1.46-43.03-0.3-86.14-0.54-129.22c-0.07-11.97-0.74-21.33,16.77-21.58c18.59-0.26,15.76,10.63,15.75,21.65
			c-0.03,56.19-0.61,112.39,0.36,168.56c0.28,16.19-4.85,20.29-20.45,20.03C1110.4,2306.63,1057.95,2307.19,1005.5,2307.19z"/>
		<path class="st3" d="M1050.38,928.72c-24.37,0-48.75,0.54-73.09-0.21c-13.55-0.42-21.61,2.21-19.33,18.21
			c1.58,11.07,0.45,20.02-15.43,19.45c-14.61-0.53-14.71-9.26-13.29-18.77c2.63-17.66-6.58-20.26-20.92-18.82
			c-8.35,0.84-16.96-0.69-25.27,0.33c-14.92,1.83-16.14-6.02-16.59-18.18c-0.52-14.11,4.9-18.45,17.85-16.78
			c3.69,0.48,7.58-0.47,11.22,0.16c25.68,4.44,39.01-3.31,33.76-32c-1.65-8.98-2.34-18.07,12.91-18.37
			c15.22-0.3,17.82,6.72,15.82,18.57c-4.39,26.02,6.15,33.73,31.98,32.3c40.17-2.23,80.57-0.3,120.86-0.74
			c24.98-0.27,45.41-7.01,42.98-38.27c-0.81-10.46,4.14-12.75,13.24-12.47c8.75,0.27,16.81-0.56,17.16,12.15
			c1.24,44.49-6.07,70.87-57.96,73.1c-25.26,1.09-50.6,0.19-75.9,0.19C1050.38,928.61,1050.38,928.66,1050.38,928.72z"/>
		<path class="st6" d="M1053.42,1555.2c-35.51,0-71.02-0.4-106.51,0.21c-12.32,0.21-18.54-1.74-18.4-16.45
			c0.14-14.6,4.45-19.19,19.19-19.05c71.94,0.66,143.89,0.61,215.83,0.03c13.93-0.11,19.69,2.87,19.96,18.31
			c0.3,16.97-8.29,17.26-20.75,17.11C1126.31,1554.91,1089.86,1555.2,1053.42,1555.2z"/>
		<path class="st7" d="M858.15,1514.49c13.35,3.18,21.82,9.51,21.04,24.65c-0.78,15.27-8.93,21.37-23.18,20.83
			c-14.86-0.56-21.84-9.97-21.35-23.43C835.17,1522.51,844.93,1515.84,858.15,1514.49z"/>
		<path class="st1" d="M326.62,2272.3c-41.19,0-82.38-0.13-123.56,0.09c-10.13,0.05-18.94-0.06-18.49-13.97
			c1.2-37.24-3.27-74.8,7.51-111.47c5.13-17.45,13.52-33.02,26.74-45.11c50.66-46.37,110.93-46.37,170.95-28.18
			c54.63,16.55,78.31,59.89,79.37,115.94c0.39,20.58-0.37,41.24,1.2,61.72c1.4,18.28-6.68,21.72-22.97,21.31
			C407.14,2271.63,366.87,2272.31,326.62,2272.3z"/>
		<path class="st8" d="M1054.43,1187.38c-29.6-1.02-57.32-7.67-78.64-29.95c-29.94-31.27-24.47-82.19,12.72-106.94
			c40.74-27.11,84.14-27.35,126.95-4.87c25.87,13.59,39.25,36.09,38.58,66.12c-0.68,30.41-16.98,50.56-42.79,63.48
			C1093.62,1184.03,1074.49,1188.36,1054.43,1187.38z"/>
		<path class="st9" d="M383.62,1861.25c-1.16-39.49,13.12-48.16,50.34-30.55c34.21,16.18,51.93,63.05,36.85,97.82
			c-7.26,16.73-19.93,27.94-38.22,28.19c-19.56,0.26-33.21-10.69-39.66-29.53C385.61,1905.82,383.82,1883.64,383.62,1861.25z"/>
		<path class="st10" d="M1036.74,1968.91c0,16.83-1.41,33.81,0.34,50.46c2.54,24.26-8.68,23.19-25.88,17.25
			c-35.03-12.1-55.28-40-54.02-76.11c1.16-33.41,24.66-59.86,59.76-68.34c13.65-3.3,21.11-1.98,20.09,15.04
			C1035.81,1927.7,1036.74,1948.33,1036.74,1968.91z"/>
		<path class="st1" d="M1057.94,625.1c64.87,0.3,102.92,36.55,96.59,92.03c-0.32,2.79-0.38,5.64-1.02,8.36
			c-10.13,43-59.63,66.16-122.47,57.36c-46.66-6.53-76-39.53-73.81-83.03C959.54,653.93,998.75,624.83,1057.94,625.1z"/>
	</g>
</g>
</svg>
