<?xml version="1.0" encoding="utf-8"?>
<!-- Generator: Adobe Illustrator 23.0.3, SVG Export Plug-In . SVG Version: 6.00 Build 0)  -->
<svg version="1.1" id="Layer_1" xmlns="http://www.w3.org/2000/svg" xmlns:xlink="http://www.w3.org/1999/xlink" x="0px" y="0px"
	 viewBox="0 0 595.28 841.89" style="enable-background:new 0 0 595.28 841.89;" xml:space="preserve">
<style type="text/css">
	.st0{fill:#27AAE1;}
	.st1{fill:#9ED4E7;}
	.st2{opacity:0.7;fill:#00AEEF;}
	.st3{fill:#F1F2F2;}
	.st4{font-family:'MyriadPro-Regular';}
	.st5{font-size:58.7895px;}
	.st6{font-family:'GillSans';}
	.st7{font-size:63.1446px;}
	.st8{font-size:56.8595px;}
	.st9{font-size:58.3622px;}
	.st10{font-size:12px;}
	.st11{font-size:48.2347px;}
	.st12{opacity:0.8;fill:#92C5D7;}
	.st13{fill:#1B75BC;}
	.st14{font-size:98.5521px;}
	.st15{font-size:17.5789px;}
	.st16{fill:#FFFFFF;}
	.st17{font-size:44.0318px;}
	.st18{font-size:32.9708px;}
	.st19{font-size:12.3372px;}
</style>
<rect x="302.95" y="412.51" class="st0" width="201.61" height="59.16"/>
<rect x="30.64" y="175.13" class="st1" width="146.26" height="146.26"/>
<rect x="37.09" y="16.47" class="st2" width="101.24" height="101.24"/>
<path class="st2" d="M294.29,125.3h-72.77c-7.86,0-14.23-6.37-14.23-14.23V38.3c0-7.86,6.37-14.23,14.23-14.23h72.77
	c7.86,0,14.23,6.37,14.23,14.23v72.77C308.53,118.93,302.15,125.3,294.29,125.3z"/>
<text transform="matrix(1 0 0 1 54.3659 86.8389)" class="st3 st4 st5">LD</text>
<text transform="matrix(1 0 0 1 219.166 96.5891)" class="st3 st6 st7">LD</text>
<path class="st0" d="M499.78,133.17h-69.94c-7.24,0-13.12-5.87-13.12-13.12V50.12c0-7.24,5.87-13.12,13.12-13.12h69.94
	c7.24,0,13.12,5.87,13.12,13.12v69.94C512.89,127.3,507.02,133.17,499.78,133.17z"/>
<text transform="matrix(1 0 0 1 432.239 104.5762)" class="st3 st6 st8">L</text>
<text transform="matrix(1 0 0 1 460.3662 104.5762)" class="st3 st6 st9">d</text>
<text transform="matrix(1 0 0 1 215.516 113.5582)" class="st3 st6 st10">Lenington Design</text>
<text transform="matrix(1 0 0 1 45.9133 104.5763)" class="st3 st6 st10">Lenington Design</text>
<text transform="matrix(1 0 0 1 424.3138 121.1508)" class="st3 st6 st10">Lenington Design</text>
<text transform="matrix(1 0 0 1 45.9131 256.4599)" class="st6 st11">LD</text>
<text transform="matrix(1 0 0 1 49.4083 272.6068)" class="st6 st10">Lenington Design</text>
<rect x="297.64" y="185.69" class="st12" width="167.17" height="167.17"/>
<text transform="matrix(1 0 0 1 297.6378 305.3234)" class="st13 st6 st14">LD</text>
<text transform="matrix(1 0 0 1 302.9455 332.2519)" class="st13 st6 st15">Lenington Design</text>
<path class="st13" d="M200.19,500.68H88.38c-5.75,0-10.41-4.66-10.41-10.41V378.45c0-5.75,4.66-10.41,10.41-10.41h111.81
	c5.75,0,10.41,4.66,10.41,10.41v111.81C210.61,496.01,205.95,500.68,200.19,500.68z"/>
<text transform="matrix(1 0 0 1 117.9516 448.1748)" class="st16 st6 st17">LD</text>
<text transform="matrix(1 0 0 1 103.7717 476.4811)" class="st16 st6 st10">Lenington Design</text>
<text transform="matrix(1 0 0 1 381.223 442.0899)" class="st3 st6 st18">LD</text>
<text transform="matrix(1 0 0 1 362.7432 462.838)" class="st3 st6 st19">Lenington Design</text>
</svg>
