<?xml version="1.0" encoding="utf-8"?>
<!-- Generator: Adobe Illustrator 23.0.3, SVG Export Plug-In . SVG Version: 6.00 Build 0)  -->
<svg version="1.1" id="Layer_1" xmlns="http://www.w3.org/2000/svg" xmlns:xlink="http://www.w3.org/1999/xlink" x="0px" y="0px"
	 viewBox="0 0 595.28 841.89" style="enable-background:new 0 0 595.28 841.89;" xml:space="preserve">
<style type="text/css">
	.st0{fill:#FFFFFF;stroke:#000000;stroke-miterlimit:10;}
	.st1{font-family:'MyriadPro-Regular';}
	.st2{font-size:12px;}
	.st3{fill:none;stroke:#000000;stroke-miterlimit:10;}
	.st4{font-size:7.0556px;}
</style>
<rect x="261.14" y="46.14" class="st0" width="127.16" height="198.77"/>
<rect x="41.38" y="46.14" class="st0" width="127.16" height="198.77"/>
<rect x="50.02" y="291.81" class="st0" width="127.16" height="198.77"/>
<rect x="442.42" y="35.89" class="st0" width="127.16" height="198.77"/>
<rect x="41.47" y="46.2" class="st0" width="126.99" height="17.62"/>
<rect x="41.47" y="65.96" class="st0" width="127.08" height="49.65"/>
<path class="st0" d="M43.69,69.16c122.25,43.24,122.25,43.24,122.25,43.24"/>
<path class="st0" d="M43.69,112.4c120.65-42.17,120.65-42.17,120.65-42.17"/>
<rect x="41.38" y="115.61" class="st0" width="127.08" height="37.37"/>
<rect x="47.42" y="117.74" class="st0" width="41.64" height="32.03"/>
<rect x="41.38" y="152.98" class="st0" width="127.08" height="35.23"/>
<rect x="47.42" y="156.18" class="st0" width="41.64" height="28.83"/>
<rect x="47.42" y="191.95" class="st0" width="41.64" height="28.83"/>
<rect x="41.47" y="224.51" class="st0" width="127.08" height="20.39"/>
<polygon class="st0" points="385.41,105.49 264.09,105.49 264.09,52.52 264.09,49.62 385.41,49.62 "/>
<line class="st0" x1="268.89" y1="51.34" x2="380.61" y2="101.37"/>
<line class="st0" x1="268.89" y1="101.37" x2="380.61" y2="51.34"/>
<rect x="261.14" y="109.6" class="st0" width="127.16" height="17.13"/>
<rect x="261.14" y="128.96" class="st0" width="127.16" height="32.63"/>
<rect x="264.09" y="165.14" class="st0" width="121.31" height="35.08"/>
<rect x="268.89" y="169.45" class="st0" width="38.46" height="27.38"/>
<rect x="263.4" y="213.75" class="st0" width="122.64" height="28.61"/>
<line class="st0" x1="270.71" y1="170.59" x2="304.88" y2="194.54"/>
<line class="st0" x1="304.88" y1="172.3" x2="271.99" y2="194.54"/>
<rect x="444.68" y="37.44" class="st0" width="121.51" height="17.92"/>
<text transform="matrix(1 0 0 1 488.6374 49.6198)" class="st1 st2">TITLE</text>
<rect x="445.24" y="62.64" class="st3" width="121.51" height="64.09"/>
<line class="st3" x1="448.04" y1="65.44" x2="562.83" y2="123.11"/>
<line class="st3" x1="448.04" y1="123.11" x2="562.83" y2="65.44"/>
<rect x="445.24" y="128.96" class="st3" width="121.51" height="12.63"/>
<rect x="445.24" y="143.82" class="st3" width="121.51" height="22.87"/>
<rect x="444.68" y="170.61" class="st3" width="121.51" height="22.87"/>
<rect x="445.24" y="197.4" class="st3" width="121.51" height="32.71"/>
<line class="st3" x1="448.04" y1="172.3" x2="562.83" y2="190.32"/>
<line class="st3" x1="448.04" y1="190.32" x2="562.83" y2="172.3"/>
<rect x="51.47" y="293.54" class="st3" width="123.91" height="17.99"/>
<text transform="matrix(1 0 0 1 100.2207 306.3107)" class="st1 st2">NAV</text>
<rect x="51.47" y="314" class="st3" width="123.91" height="57.17"/>
<line class="st3" x1="53.96" y1="316.15" x2="172.33" y2="368.49"/>
<line class="st3" x1="53.96" y1="368.49" x2="172.33" y2="316.15"/>
<rect x="53.96" y="374.5" class="st3" width="121.41" height="19"/>
<text transform="matrix(1 0 0 1 64.0977 386.9799)" class="st1 st2">Logo Title Unicade</text>
<rect x="53.96" y="397.29" class="st3" width="51" height="31.48"/>
<rect x="116.33" y="397.29" class="st3" width="56" height="31.48"/>
<rect x="53.96" y="433.66" class="st3" width="51.04" height="19.54"/>
<rect x="116.33" y="433.66" class="st3" width="56" height="19.54"/>
<rect x="53.96" y="463.51" class="st3" width="118.37" height="22.8"/>
<text transform="matrix(1 0 0 1 68.2438 477.0764)" class="st1 st2">Footer and LD Logo</text>
<text transform="matrix(1 0 0 1 274.9099 230.1099)" class="st1 st2">Footer and LD Logo</text>
<text transform="matrix(1 0 0 1 57.3401 240.0127)" class="st1 st2">Footer and LD Logo</text>
<text transform="matrix(1 0 0 1 455.4643 217.2813)" class="st1 st2">Footer and LD Logo</text>
<rect x="261.14" y="291.81" class="st3" width="127.16" height="198.77"/>
<rect x="263.4" y="293.79" class="st0" width="122.64" height="16.54"/>
<text transform="matrix(1 0 0 1 312.9431 304.4887)" class="st1 st2">NAV</text>
<text transform="matrix(1 0 0 1 315.1863 123.1129)" class="st1 st2">NAV</text>
<text transform="matrix(1 0 0 1 95.4665 59.4971)" class="st1 st2">NAV</text>
<text transform="matrix(1 0 0 1 495.6129 138.2011)" class="st1 st2">NAV</text>
<rect x="264.09" y="314" class="st3" width="121.31" height="38.79"/>
<text transform="matrix(1 0 0 1 285.9082 333.3904)" class="st1 st2">UNICADE LOGO</text>
<text transform="matrix(1 0 0 1 285.9082 149.7727)" class="st1 st2">UNICADE LOGO</text>
<rect x="264.09" y="357.73" class="st3" width="121.31" height="59.35"/>
<line class="st3" x1="266.72" y1="360.7" x2="382.02" y2="413.03"/>
<line class="st3" x1="266.72" y1="413.03" x2="382.02" y2="360.7"/>
<rect x="266.72" y="463.51" class="st3" width="118.69" height="22.8"/>
<text transform="matrix(1 0 0 1 274.9097 477.0762)" class="st1 st2">Footer w/ social links</text>
<rect x="264.09" y="423.82" class="st3" width="121.94" height="35.71"/>
<text transform="matrix(1.4432 0 0 1 268.8701 437.3001)" class="st1 st4">Description</text>
<text transform="matrix(1.4432 0 0 1 53.9418 445.2499)" class="st1 st4">Description</text>
<text transform="matrix(1.4432 0 0 1 119.3001 445.2502)" class="st1 st4">Description</text>
<text transform="matrix(1.4432 0 0 1 100.1986 200.2162)" class="st1 st4">Description</text>
<text transform="matrix(1.4432 0 0 1 100.1986 161.5911)" class="st1 st4">Description</text>
<text transform="matrix(1.4432 0 0 1 100.1986 128.9577)" class="st1 st4">Description</text>
<text transform="matrix(1.4432 0 0 1 322.0822 181.3091)" class="st1 st4">Description</text>
<text transform="matrix(1.4432 0 0 1 268.8698 449.6881)" class="st1 st4">Description</text>
<rect x="339.59" y="428.77" class="st3" width="45.82" height="24.42"/>
<text transform="matrix(1 0 0 1 342.5004 443.4261)" class="st1 st2">LD Logo</text>
<line class="st3" x1="50.02" y1="120.27" x2="86.51" y2="146.94"/>
<line class="st3" x1="50.02" y1="146.94" x2="86.51" y2="120.27"/>
<line class="st0" x1="50.02" y1="158.48" x2="86.51" y2="181.31"/>
<line class="st0" x1="50.02" y1="181.31" x2="85.51" y2="158.48"/>
<line class="st0" x1="50.02" y1="194.9" x2="86.51" y2="218.32"/>
<line class="st0" x1="50.02" y1="218.32" x2="86.51" y2="194.9"/>
<line class="st3" x1="57.34" y1="400.99" x2="100.22" y2="425.76"/>
<line class="st3" x1="57.34" y1="425.76" x2="100.22" y2="400.99"/>
<line class="st3" x1="119.32" y1="400.99" x2="168.87" y2="425.76"/>
<line class="st3" x1="119.32" y1="425.76" x2="168.87" y2="400.99"/>
</svg>
